<?xml version="1.0" encoding="UTF-8" standalone="no"?>
<!-- Created with Inkscape (http://www.inkscape.org/) -->

<svg
   version="1.1"
   id="svg1"
   width="1332"
   height="1332"
   viewBox="0 0 1332 1332"
   sodipodi:docname="MAIN_ICON.svg"
   inkscape:version="1.3.2 (091e20e, 2023-11-25)"
   inkscape:export-filename="MAIN_ICON.png"
   inkscape:export-xdpi="36.900002"
   inkscape:export-ydpi="36.900002"
   xmlns:inkscape="http://www.inkscape.org/namespaces/inkscape"
   xmlns:sodipodi="http://sodipodi.sourceforge.net/DTD/sodipodi-0.dtd"
   xmlns="http://www.w3.org/2000/svg"
   xmlns:svg="http://www.w3.org/2000/svg">
  <defs
     id="defs1">
    <inkscape:path-effect
       effect="bspline"
       id="path-effect186"
       is_visible="true"
       lpeversion="1.3"
       weight="33.333333"
       steps="2"
       helper_size="0"
       apply_no_weight="true"
       apply_with_weight="true"
       only_selected="false"
       uniform="false" />
    <inkscape:path-effect
       effect="bspline"
       id="path-effect185"
       is_visible="true"
       lpeversion="1.3"
       weight="33.333333"
       steps="2"
       helper_size="0"
       apply_no_weight="true"
       apply_with_weight="true"
       only_selected="false"
       uniform="false" />
    <inkscape:path-effect
       effect="simplify"
       id="path-effect184"
       is_visible="true"
       lpeversion="1.3"
       threshold="17.2414"
       steps="1"
       smooth_angles="360"
       helper_size="0"
       simplify_individual_paths="false"
       simplify_just_coalesce="false" />
    <inkscape:path-effect
       effect="simplify"
       id="path-effect173"
       is_visible="true"
       lpeversion="1.3"
       threshold="17.2414"
       steps="1"
       smooth_angles="360"
       helper_size="0"
       simplify_individual_paths="false"
       simplify_just_coalesce="false" />
    <inkscape:path-effect
       effect="bspline"
       id="path-effect172"
       is_visible="true"
       lpeversion="1.3"
       weight="33.333333"
       steps="2"
       helper_size="0"
       apply_no_weight="true"
       apply_with_weight="true"
       only_selected="false"
       uniform="false" />
    <inkscape:path-effect
       effect="simplify"
       id="path-effect171"
       is_visible="true"
       lpeversion="1.3"
       threshold="17.2414"
       steps="1"
       smooth_angles="360"
       helper_size="0"
       simplify_individual_paths="false"
       simplify_just_coalesce="false" />
    <inkscape:path-effect
       effect="simplify"
       id="path-effect170"
       is_visible="true"
       lpeversion="1.3"
       threshold="17.2414"
       steps="1"
       smooth_angles="360"
       helper_size="0"
       simplify_individual_paths="false"
       simplify_just_coalesce="false" />
  </defs>
  <sodipodi:namedview
     id="namedview1"
     pagecolor="#505050"
     bordercolor="#ffffff"
     borderopacity="1"
     inkscape:showpageshadow="0"
     inkscape:pageopacity="0"
     inkscape:pagecheckerboard="1"
     inkscape:deskcolor="#505050"
     showgrid="false"
     inkscape:zoom="0.61676389"
     inkscape:cx="776.63432"
     inkscape:cy="733.66812"
     inkscape:window-width="1920"
     inkscape:window-height="1080"
     inkscape:window-x="0"
     inkscape:window-y="0"
     inkscape:window-maximized="0"
     inkscape:current-layer="g1"
     inkscape:export-bgcolor="#e0dfdf00" />
  <g
     inkscape:groupmode="layer"
     inkscape:label="Image"
     id="g1"
     style="display:inline">
    <path
       style="display:inline;fill:#e9e9e9;stroke:#000000;stroke-width:1.00157;stroke-dasharray:none;stroke-opacity:1"
       d="m 802.66672,1006.6117 c -6.96667,-0.6499 -24.06667,-1.7717 -38.00001,-2.4928 -92.38337,-8.31443 -184.94049,-11.64367 -277.33335,-18.77317 -8.8,-0.70495 -24.18085,-1.8043 -34.17966,-2.443 -46.42513,-2.96553 -72.49375,-51.44356 -74.10705,-112.4726 -0.48878,-18.48979 -0.91662,-19.60814 -3.57021,-20.25838 -1.54536,-0.37868 -17.70785,-2.81328 -36.80975,-2.77861 -92.48877,0.16786 -86.78385,-4.86465 -94.33543,-13.82037 -13.25372,-15.71813 -18.00503,-35.80862 -11.48266,-48.55345 2.62944,-5.13798 5.67953,-5.52653 32.95402,-4.19798 50.29276,2.44977 48.26363,2.79069 61.01876,-10.25194 19.86146,-20.30914 15.58726,-17.22315 66.23374,-16.18444 141.4971,2.90197 125.99247,4.05053 126.90717,1.23565 0.45505,-1.40034 3.83733,-10.25677 4.16667,-11.83577 0.84937,-4.07227 6.67296,-29.26873 10.51922,-55.78487 4.5996,-38.08745 15.52504,-74.87224 24.607,-112 3.52467,-15.37061 4.57538,-19.25829 10.7141,-39.64258 1.81796,-6.03676 4.85009,-17.13676 6.73807,-24.66667 1.88798,-7.52991 5.27318,-19.69075 7.52268,-27.02408 9.17129,-29.89827 17.38094,-55.22687 20.96013,-64.66667 2.08538,-5.5 5.08123,-14.04261 6.65746,-18.98358 1.57623,-4.94096 5.58763,-14.4947 8.69211,-21.33333 10.9566,-24.13548 20.34405,-42.87466 31.92148,-64.86167 1.35364,-2.65178 5.27378,-7.28615 7.66666,-11.06063 3.80533,-6.00244 11.05683,-13.75192 14.53884,-16.95931 2.0612,-1.89864 6.57568,-4.79671 9.0955,-6.1393 2.05656,-1.09576 10.10211,-4.30138 46.23783,-5.27676 12.46667,-0.33651 31.36667,-0.94107 42.00001,-1.34347 50.14907,-1.89782 318.87655,-0.94323 320.95985,1.14014 1.2439,1.24391 -4.1833,5.69065 -8.2932,8.27411 -4.0974,2.57555 -37.8314,23.17094 -46.5447,33.63659 -12.9077,15.50357 -16.7226,23.41209 -19.4028,29.50216 -23.87795,54.25608 -32.90684,80.21557 -51.74945,144.51821 -11.59665,43.24372 -19.00362,87.41918 -28.33027,131.22649 -2.49213,11.74833 -14.48222,64.53823 -17.38903,96.99368 -0.72247,8.0667 -2.01515,19.15167 -2.5814,24.6667 -3.56691,34.73995 -5.22586,51.64804 -7.39666,72.66664 -2.35988,29.03299 -2.72465,34.6206 -12.61106,76.37491 -8.04348,33.97084 -9.06429,49.30122 -17.54423,73.77248 -6.00538,17.33018 -34.4029,43.90667 -78.45038,39.79767 z"
       id="path183"
       sodipodi:nodetypes="ssssssssssssssssssssssssssssssssssssssss" />
    <path
       style="display:inline;fill:#cfcece;stroke:#000000;stroke-opacity:1"
       d="m 802.66672,1006.6117 c -7.7,-0.6076 -27.62644,-1.6834 -43.38146,-2.9715 -35.50513,-2.903 -130.18252,-9.16489 -144.82137,-10.03933 -41.70653,-2.49133 -110.05217,-7.07467 -124.95805,-8.0882 -11,-1.06362 -22.52506,0.095 -34.93868,-2.51892 -21.0148,-4.42511 -27.69385,-5.13555 -41.93798,-18.13794 -17.69189,-16.1496 -32.93795,-57.3102 -33.58253,-94.42568 -0.31436,-18.10097 0.21986,-19.37712 -3.57021,-20.25838 -5.04668,-1.17345 -11.13886,-2.52024 -33.49399,-2.57235 -82.77294,-0.19294 -89.46893,-2.68172 -97.65119,-14.02663 -8.51361,-11.80434 -17.94418,-24.40753 -12.64394,-45.89289 2.30968,-9.36268 21.2763,-7.40156 33.3855,-6.89396 13.49931,0.56588 285.42642,9.60362 327.70541,11.73144 46.63638,2.34712 54.16829,67.07686 69.86328,67.34046 18.80721,0.31587 72.81004,-93.43746 83.49497,-92.97604 16.57428,0.71574 30.27376,24.04056 33.02782,56.36428 1.54938,20.93985 -0.36401,48.59322 2.19794,69.85905 6.02498,50.01117 15.61115,80.41686 41.47011,102.53221 4.56096,3.90067 6.64668,9.83628 0.2691,10.33898 -2.46614,0.1944 -12.73473,1.2431 -20.43473,0.6354 z m 11.33333,-190.94759 c -37.60373,-1.40026 -35.47519,-0.72459 -38.59537,-12.25146 -3.33006,-12.30224 -5.44594,-11.65306 35.04772,-10.75315 50.94748,1.13223 47.41608,0.23789 46.44981,11.76355 -0.8179,9.75592 -2.83535,13.17554 -7.49033,12.69629 -1.14317,-0.11769 -17.0785,-0.77255 -35.41183,-1.45523 z m 8.66667,-52.39488 c -69.42032,-2.91474 -110.24156,-4.64941 -139.33335,-5.92089 -15.4,-0.67307 -46.3,-1.91421 -68.66667,-2.75808 -59.60262,-2.24876 -61.91064,-2.4926 -62.38985,-6.59147 -0.98098,-8.39074 -2.47555,-8.22957 55.72319,-6.00901 101.64602,3.87827 123.60176,4.72592 155.33334,5.997 17.6,0.705 51.5,1.9578 75.33334,2.78399 48.57075,1.68372 50.52235,2.20014 45.28642,11.98355 -1.63268,3.05069 -1.01505,3.0455 -61.28642,0.51491 z m -41.33334,-48.02209 c -25.3,-0.94923 -63.05529,-2.35344 -83.90063,-3.12047 -42.35868,-1.55863 -40.6723,-1.07694 -39.40072,-11.25428 1.69855,-13.59477 -10.06301,-12.96916 141.30135,-7.51599 19.06667,0.68691 42.11025,1.35631 51.20795,1.48755 21.97324,0.31697 23.68231,2.22901 18.01647,20.15605 -0.90291,2.85688 -16.4894,2.90104 -87.22442,0.24714 z m 28.66667,-48.05827 c -30.06667,-0.97538 -69.76674,-2.24189 -88.22237,-2.81447 -18.45564,-0.57259 -33.99594,-1.48137 -34.53401,-2.01952 -1.20593,-1.2061 1.51171,-18.31021 3.17327,-19.97178 1.1658,-1.1658 180.21124,3.65455 186.58311,5.02328 3.40096,0.73055 4.0817,6.83957 1.69103,15.17534 -1.59468,5.56032 -3.30927,6.75967 -9.35769,6.54567 -2.56667,-0.0908 -29.26667,-0.96315 -59.33334,-1.93852 z m 42,-46.70423 c -4.03333,-0.18946 -44.53333,-1.34378 -90,-2.56517 -60.94284,-1.63713 -83.12444,-2.65141 -84.40863,-3.85966 -1.69219,-1.59213 0.58335,-16.67898 2.8589,-18.95453 0.90438,-0.90438 202.63138,3.32646 207.38824,4.34958 3.44725,0.74144 3.48039,5.11589 0.12789,16.87847 -1.52538,5.35194 -4.09419,5.64844 -35.9664,4.15131 z m -36.66667,-48.67323 c -62.07813,-1.35862 -58.50243,-0.84702 -57.29247,-8.19733 2.50628,-15.22522 -1.6324,-14.21455 54.85895,-13.39673 87.48892,1.26657 87.82691,1.30116 87.42697,8.94813 -0.8097,15.48159 5.00985,14.61572 -84.99345,12.64593 z m 12.66667,-46.53118 c -23.83333,-0.50289 -57.16866,-0.99667 -74.0785,-1.09729 -36.52471,-0.21733 -36.13147,-0.0905 -33.29917,-10.74044 3.06576,-11.5278 -5.44596,-10.70828 96.04434,-9.24734 105.89202,1.52431 97.26565,0.74596 96.17842,8.6781 -2.05493,14.99239 2.95629,14.25959 -84.84509,12.40697 z m 6.28371,-45.24858 c -56.62138,-0.78478 -53.72931,-0.1639 -50.89047,-10.92543 2.93078,-11.11004 -3.14736,-10.30399 71.6788,-9.50572 75.67099,0.80727 71.17298,0.0777 68.7305,11.14829 -2.40518,10.90152 -1.82199,10.62431 -21.63246,10.28286 -9.62688,-0.16593 -40.17574,-0.61593 -67.88637,-1 z m -58.95038,-45.37378 c -27.13333,-0.40717 -49.48334,-0.87175 -49.66667,-1.03242 -1.52555,-1.33692 2.78022,-16.92022 5.06541,-18.33254 1.51719,-0.93768 143.27819,-0.50489 179.9346,0.54932 28.66667,0.82444 28.66667,0.82444 28.38164,5.75167 -0.93109,16.0952 5.27633,15.59987 -163.71498,13.06397 z M 674.68369,390.7038 c -33.93717,-0.7627 -35.23972,-1.10773 -29.73965,-7.87775 3.85283,-4.74243 328.81504,-2.52599 329.4917,2.24734 1.03528,7.303 8.23151,6.95112 -135.59895,6.63041 -73.06021,-0.16291 -146.9291,-0.61291 -164.1531,-1 z m 106.09398,-24.03713 c -68.44789,-0.43367 -105.34963,-1.13266 -105.58647,-2 -0.20025,-0.73334 3.68359,-10.03334 8.63075,-20.66667 8.99485,-19.33333 8.99485,-19.33333 150.25314,-19.33333 141.2583,0 141.2583,0 141.12409,4 -0.13107,3.90625 -13.65473,34.32309 -16.54451,37.21122 -1.67857,1.67761 -22.80401,1.77129 -177.877,0.78878 z"
       id="path182"
       sodipodi:nodetypes="ssssssssssssssssssssssssssssssssssssssssssssssssssssssssssssssssssssssssssssssssssssssssssss" />
    <path
       style="display:inline;fill:#a1d4ef"
       d="m 814.00005,815.66411 c -37.60373,-1.40026 -35.47519,-0.72459 -38.59537,-12.25146 -3.33006,-12.30224 -5.44594,-11.65306 35.04772,-10.75315 50.94748,1.13223 47.41608,0.23789 46.44981,11.76355 -0.8179,9.75592 -2.83535,13.17554 -7.49033,12.69629 -1.14317,-0.11769 -17.0785,-0.77255 -35.41183,-1.45523 z M 839.33338,763.885 c -13.2,-0.5721 -40.2,-1.69971 -60,-2.50579 -19.8,-0.80609 -49.5,-2.04202 -66,-2.74653 -58.54783,-2.49984 -95.73103,-4.05608 -126.58052,-5.29783 -33.77986,-1.35971 -35.90853,-1.88198 -34.27054,-8.40827 1.25354,-4.99448 1.29206,-4.99647 55.86986,-2.8849 28.03965,1.08483 67.18119,2.5738 86.9812,3.30883 19.8,0.73502 50.4,1.91729 68,2.62725 17.6,0.70996 51.5,1.96682 75.33334,2.79301 48.57075,1.68372 50.52235,2.20014 45.28642,11.98355 -1.56513,2.92448 -2.61697,2.95114 -44.61976,1.13068 z m -58,-48.63786 c -25.3,-0.94923 -63.05529,-2.35344 -83.90063,-3.12047 -42.35868,-1.55863 -40.6723,-1.07694 -39.40072,-11.25428 1.69855,-13.59477 -10.06301,-12.96916 141.30135,-7.51599 19.06667,0.68691 42.11025,1.35631 51.20795,1.48755 21.97324,0.31697 23.68231,2.22901 18.01647,20.15605 -0.90291,2.85688 -16.4894,2.90104 -87.22442,0.24714 z m 28.66667,-48.0347 c -105.26979,-3.36961 -120.71115,-4.05692 -122.08847,-5.43424 -1.54624,-1.54623 0.51916,-17.4089 2.52833,-19.41807 1.14404,-1.14404 180.30223,3.702 186.56014,5.04625 3.40096,0.73055 4.0817,6.83957 1.69103,15.17534 -1.59468,5.56032 -3.30927,6.75967 -9.35769,6.54567 -2.56667,-0.0908 -29.26667,-0.95254 -59.33334,-1.91495 z m 42,-46.7278 c -4.03333,-0.18946 -44.53333,-1.34378 -90,-2.56517 -93.00385,-2.4984 -86.78924,-1.54483 -84.49573,-12.96509 2.31294,-11.51695 -6.79969,-10.816 107.45746,-8.26573 110.47245,2.46579 106.4714,2.08866 105.17736,9.91367 -2.66668,16.12546 -1.26292,15.6145 -38.13909,13.88232 z m -38,-48.76039 c -60.3816,-1.33796 -57.56039,-0.75907 -55.2901,-11.34505 2.53887,-11.83833 -2.88651,-11.11868 73.23005,-9.71364 74.7232,1.37932 70.43264,0.6594 68.26474,11.45418 -2.59255,12.90927 8.27834,11.69808 -86.20469,9.60451 z m 14,-46.44402 c -23.83333,-0.50289 -57.24048,-0.99667 -74.2381,-1.09729 -36.35459,-0.2152 -35.93736,-0.0756 -33.04142,-11.05364 2.94437,-11.16158 -5.32172,-10.39188 95.94619,-8.93414 105.89202,1.52431 97.26565,0.74596 96.17842,8.6781 -2.05493,14.99239 2.95629,14.25959 -84.84509,12.40697 z m 6.28371,-45.24858 c -56.62138,-0.78478 -53.72931,-0.1639 -50.89047,-10.92543 2.93078,-11.11004 -3.14736,-10.30399 71.6788,-9.50572 75.67099,0.80727 71.17298,0.0777 68.7305,11.14829 -2.40518,10.90152 -1.82199,10.62431 -21.63246,10.28286 -9.62688,-0.16593 -40.17574,-0.61593 -67.88637,-1 z m -58.95038,-45.37378 c -27.13333,-0.40717 -49.48334,-0.87175 -49.66667,-1.03242 -1.52555,-1.33692 2.78022,-16.92022 5.06541,-18.33254 1.51719,-0.93768 143.27819,-0.50489 179.9346,0.54932 28.66667,0.82444 28.66667,0.82444 28.38164,5.75167 -0.93109,16.0952 5.27633,15.59987 -163.71498,13.06397 z M 675.8095,391.00164 c -33.46422,-0.42598 -35.65583,-0.96767 -31.23188,-7.71947 2.04135,-3.11549 312.05667,-4.22841 327.08911,-1.17422 3.33809,0.67821 4.15795,5.5341 1.4,8.29205 -1.49286,1.49286 -196.27534,1.8871 -297.25723,0.60164 z m 105.96792,-24.33497 c -111.49349,-0.71318 -107.13168,-0.40286 -104.58677,-7.44069 13.56119,-37.50282 3.50285,-35.26835 157.09529,-34.89874 141.04745,0.33943 141.04745,0.33943 140.91324,4.33943 -0.13107,3.90625 -13.65473,34.32309 -16.54451,37.21122 -1.67806,1.67709 -23.08135,1.77254 -176.87725,0.78878 z"
       id="path181" />
    <path
       style="display:inline;fill:#64c4ef"
       d="m 802.66672,760.59091 c -39.23334,-1.687 -110.33334,-4.63528 -158.00001,-6.55172 -95.57222,-3.84249 -90.00001,-3.35617 -90.00001,-7.85469 0,-4.03004 2.188,-4.90434 10.29157,-4.11238 3.5063,0.34267 32.1751,1.5295 63.70843,2.6374 31.53334,1.1079 87.03334,3.18868 123.33335,4.62395 36.3,1.43528 76.2,2.93919 88.66667,3.34204 40.07114,1.29485 42,1.56866 42,5.96226 0,3.77365 -2.16699,5.51983 -6.44238,5.19132 -1.22336,-0.094 -34.32429,-1.55118 -73.55762,-3.23818 z m -49.95083,-48.14227 c -57.42701,-2.00528 -92.26574,-3.72035 -92.78957,-4.56792 -1.08919,-1.76234 0.94147,-14.61513 2.56571,-16.23938 0.77697,-0.77696 16.04514,-0.70281 40.3787,0.19612 21.52113,0.79503 59.82932,2.11395 85.12932,2.93093 85.7613,2.76938 80.72831,2.11045 80.26659,10.50875 -0.22004,4.00243 -1.04351,8.05243 -1.82993,9 -1.77011,2.13285 0.99893,2.17738 -113.72082,-1.8285 z m 48.61749,-47.26818 c -125.74655,-3.97398 -114.03813,-2.55963 -111.83901,-13.50984 2.0364,-10.13999 -9.59019,-9.63044 114.50568,-5.01833 20.16667,0.74951 43.56667,1.41917 52,1.48814 21.1488,0.17294 22.11651,0.52934 21.5405,7.93329 -0.93575,12.02792 2.65373,11.59898 -76.20717,9.10674 z m 19.33334,-47.23292 c -28.60001,-0.91381 -70.90001,-2.05897 -94.00001,-2.5448 -52.25871,-1.09909 -48.56961,-0.39618 -47.54365,-9.05885 1.3606,-11.48813 -6.03331,-10.77938 88.34694,-8.46851 135.7462,3.32372 122.48236,1.98465 120.09781,12.12462 -2.17553,9.25112 -2.91383,10.02838 -9.31311,9.80451 -3.07339,-0.10752 -28.98798,-0.94316 -57.58798,-1.85697 z m -27.89425,-48.26992 c -35.06299,-0.45378 -34.57862,-0.30342 -32.03535,-9.94452 2.32139,-8.79999 2.81688,-9.03047 17.88916,-8.32131 6.98891,0.32884 36.48319,0.96462 65.54285,1.41284 60.17825,0.92821 56.61343,0.2721 54.15771,9.96779 -1.99516,7.87727 -6.44905,8.16779 -105.55437,6.8852 z m -16.99559,-46.92808 c -58.00557,-0.82204 -55.07593,-0.39358 -53.81279,-7.87005 1.85415,-10.97461 -7.09617,-10.17136 95.945,-8.61059 99.97553,1.51433 94.70179,0.9195 92.28177,10.40857 -1.90642,7.47519 -9.90596,7.83656 -134.41398,6.07207 z M 804.83123,477.6385 C 781.57072,477.22689 781.74409,477.34653 786.51668,465 c 1.4316,-3.70349 129.01567,-6.03322 134.65916,-2.45892 1.75739,1.11304 1.49687,6.42008 -0.67835,13.81838 -0.70746,2.40621 -32.25415,2.75505 -115.66626,1.27904 z m 2.23479,-44.28389 c -86.38638,-0.76583 -81.78251,-0.16777 -78.08014,-10.14297 2.87191,-7.73772 6.33455,-7.89829 133.68084,-6.19906 74,0.98742 74,0.98742 73.85229,5.93817 -0.33618,11.26724 -1.54547,11.75599 -28.21636,11.40386 -12.99976,-0.17162 -58.55624,-0.62162 -101.23663,-1 z m -62.77781,-43.68782 c -104.06722,-0.3736 -105.22564,-0.45057 -97.02545,-6.4467 3.02755,-2.2138 321.13719,-0.77841 324.76781,1.46544 8.60822,5.32016 0.7939,5.9925 -65.74409,5.65659 -35.35754,-0.1785 -108.25676,-0.4824 -161.99827,-0.67533 z m -66.30157,-25.68847 c -0.95613,-1.54706 14.71802,-36.04521 17.12155,-37.68379 1.85351,-1.26361 277.12257,0.27219 278.52435,1.55396 0.53119,0.48572 -2.86611,8.96852 -7.54956,18.85065 -8.51536,17.96753 -8.51536,17.96753 -147.88334,18.30699 -94.13896,0.2293 -139.64221,-0.10425 -140.213,-1.02781 z"
       id="path180" />
    <path
       style="display:inline;fill:#51b3ee"
       d="m 783.33338,758.64998 c -49.86667,-2.05014 -108.66667,-4.42227 -130.66667,-5.2714 -106.99132,-4.12949 -99.17455,-3.43302 -97.16965,-8.65771 0.83766,-2.18288 2.32577,-2.31964 17.04372,-1.56634 8.86926,0.45394 78.22593,3.24833 154.12593,6.20974 162.0264,6.32184 154.96301,5.87583 154.41108,9.75018 -0.54016,3.79173 6.60731,3.82569 -97.74441,-0.46447 z m -30.96191,-47.23889 c -50.02905,-1.58975 -91.33226,-3.26081 -91.78492,-3.71347 -0.45265,-0.45265 -0.30776,-4.01979 0.32198,-7.92698 1.3553,-8.40888 2.58121,-8.44477 129.09152,-3.7793 88.56503,3.26611 80.20908,1.46555 75.83906,16.34199 -0.83326,2.83659 6.7656,2.89835 -113.46764,-0.92224 z m 41.62858,-47.63526 c -19.8,-0.62233 -51.3,-1.57648 -70.00001,-2.12034 -34,-0.98882 -34,-0.98882 -33.69702,-6.32216 0.71302,-12.55143 -0.67358,-11.84878 21.43969,-10.86447 10.77487,0.47961 39.09067,1.49698 62.924,2.26083 70.90296,2.27241 101.37531,3.5345 102.06823,4.22742 0.35956,0.35956 -0.008,3.74131 -0.81772,7.51499 -1.66708,7.77335 -2.21536,7.80884 -81.91717,5.30373 z m 44.66667,-46.56721 c -20.9,-0.49282 -49.70001,-1.25885 -64.00001,-1.70231 -14.3,-0.44345 -41.46871,-1.20135 -60.37491,-1.68423 -38.20865,-0.97586 -36.18748,-0.40183 -34.1911,-9.71065 1.78649,-8.3301 -11.86022,-8.09327 165.01002,-2.8637 45.88985,1.35684 42.31237,0.50326 40.74848,9.72253 -1.12624,6.63925 -1.41468,7.03265 -5.19248,7.08206 -2.2,0.0288 -21.1,-0.35088 -42,-0.8437 z m -54.66667,-49.152 C 769.76793,567.61545 760.68426,566.81326 760.7117,566 c 0.13224,-3.91966 2.34416,-12.74979 3.34941,-13.37107 1.29998,-0.80343 126.9707,1.83918 131.46969,2.76455 2.72972,0.56146 2.7882,0.8866 1.2466,6.93114 -1.70517,6.68587 -32.12615,8.23204 -112.77735,5.732 z m -19.17867,-46.40866 c -42.51201,-0.35204 -42.51201,-0.35204 -41.66493,-6.53215 1.40899,-10.27969 1.10218,-10.17082 26.12363,-9.26934 12.12931,0.43701 43.0533,1.10391 68.71997,1.482 96.61775,1.42329 97.0649,1.49493 89.16107,14.28359 -0.42511,0.68785 -21.88025,1.02656 -50.28461,0.79385 -27.24872,-0.22325 -68.67353,-0.56433 -92.05513,-0.75795 z m 20.97934,-45.97048 c -1.09296,-1.76845 0.9462,-11.56967 2.62266,-12.60578 1.80358,-1.11467 104.31552,-0.72296 121.31036,0.46355 12.8023,0.8938 12.50167,0.52375 9.38323,11.54991 -0.73896,2.61279 -131.70791,3.19468 -133.31625,0.59232 z m 12.25362,-43.35652 c -74.52111,-0.37916 -70.68378,0.0902 -68.18763,-8.33981 1.77105,-5.98115 1.77105,-5.98115 102.9522,-5.52611 109.4785,0.49236 104.12979,0.0693 101.73942,8.04762 -2.14105,7.1462 11.36229,6.57064 -136.50399,5.8183 z M 678.66671,362.77143 c 0,-0.68251 3.72179,-9.14806 8.27065,-18.81233 8.27065,-17.57142 8.27065,-17.57142 146.33334,-16.60449 161.1952,1.12893 140.9132,-1.80408 131.14644,18.9653 -8.00053,17.01342 -8.00053,17.01342 -146.87548,17.35293 -85.04251,0.2079 -138.87495,-0.14152 -138.87495,-0.90141 z"
       id="path179" />
    <path
       style="display:inline;fill:#39aef6"
       d="m 830.00005,712.53267 c -2.2,-0.20565 -39.7,-1.35203 -83.33334,-2.54751 -93.07949,-2.55024 -85.88834,-1.79839 -84.93844,-8.88048 1.25968,-9.39161 -4.94189,-8.72955 60.27177,-6.43442 19.80001,0.69684 54.60001,1.89024 77.33334,2.65201 63.32248,2.12185 65.86567,2.34493 66.74656,5.85465 2.40016,9.56302 -7.20817,12.05452 -36.07989,9.35575 z m 9.33333,-48.64163 c -31.85367,-1.05298 -133.7059,-3.79474 -143.18124,-3.85429 -5.8479,-0.0367 -5.8479,-0.0367 -4.9872,-6.31621 1.2745,-9.2985 -0.44711,-8.98818 40.45563,-7.29202 20.37538,0.84493 60.74614,2.22159 89.71281,3.05925 28.96667,0.83766 53.0872,1.89611 53.60117,2.35212 2.42191,2.14877 -2.67147,14.18547 -5.60116,13.23672 -0.36667,-0.11875 -13.86667,-0.65225 -30.00001,-1.18557 z m -11.33333,-47.9328 c -16.5,-0.50929 -56.1,-1.67542 -88,-2.59139 -63.69821,-1.82903 -60.82013,-1.36952 -58.66677,-9.36651 1.64099,-6.09416 26.16312,-6.60594 127.33344,-2.65744 17.6,0.68689 41.63,1.26574 53.4,1.28633 24.38291,0.0426 24.80223,0.20366 22.84184,8.77058 -1.55296,6.78646 3.1279,6.41152 -56.90851,4.55843 z m 73.2613,-93.80805 c -0.33477,-0.33477 -39.87786,-0.99572 -87.87354,-1.46877 -47.99567,-0.47306 -87.7964,-1.18861 -88.44606,-1.59012 -1.25518,-0.77575 -0.0443,-9.75576 1.53717,-11.39976 0.94409,-0.98141 125.9989,1.65119 134.1878,2.82486 0.73333,0.10511 0.43333,0.76822 -0.66667,1.47358 -1.1,0.70536 -3.12514,0.93189 -4.5003,0.5034 -1.6296,-0.50776 -2.1826,-0.265 -1.58798,0.69711 1.50309,2.43205 6.6614,1.67189 9.26152,-1.36484 2.33367,-2.72552 3.26731,-2.81564 22.96836,-2.21685 23.11157,0.70244 22.77625,0.58499 21.09102,7.38744 -1.07606,4.34352 -4.1385,6.98676 -5.97132,5.15395 z M 858.35446,431.2433 c -0.34542,-0.34543 -29.21648,-0.70831 -64.1579,-0.80642 -63.52985,-0.17837 -63.52985,-0.17837 -63.52985,-3.39528 0,-9.54748 -8.06689,-8.89964 97.82486,-7.85616 113.41562,1.11762 108.59637,0.6411 103.46427,10.23051 -1.30672,2.44164 -71.25055,4.17818 -73.60138,1.82735 z M 680.00004,362.18444 c 0,-0.26523 3.62854,-8.15942 8.06343,-17.54265 8.06343,-17.06042 8.06343,-17.06042 101.66667,-16.19036 93.73323,0.87126 102.81335,1.30612 103.06315,4.93581 0.0737,1.07035 0.22531,2.42663 0.33701,3.01395 0.1117,0.58732 2.20972,-0.46268 4.66228,-2.33333 5.0094,-3.82086 9.09968,-4.34257 11.48765,-1.46525 3.97966,4.7952 -1.53663,10.47124 -7.22032,7.42943 -2.42211,-1.29628 -3.86615,-1.42574 -4.85649,-0.4354 -2.22982,2.22982 4.76694,8.40336 9.52391,8.40336 3.48821,0 3.93939,0.45812 3.93939,4 0,2.22222 1.18519,5.18519 2.66667,6.66667 1.46667,1.46666 2.66667,2.96666 2.66667,3.33333 0,0.36667 -53.10001,0.66667 -118.00001,0.66667 -64.90001,0 -118.00001,-0.21701 -118.00001,-0.48223 z"
       id="path178" />
    <path
       style="display:inline;fill:none;fill-opacity:0.750789;stroke:#000000;stroke-width:1.00157;stroke-dasharray:none;stroke-dashoffset:0;stroke-opacity:1"
       d="M 746.13648,766.88178 C 670.53704,763.6171 594.93737,760.35242 519.33793,757.08774"
       id="path184"
       inkscape:path-effect="#path-effect184"
       inkscape:original-d="M 746.13648,766.88178 519.33793,757.08774"
       sodipodi:nodetypes="cc" />
    <path
       style="display:inline;fill:none;fill-opacity:0.750789;stroke:#000000;stroke-width:1.00157;stroke-dasharray:none;stroke-dashoffset:0;stroke-opacity:1"
       d="m 375.47644,850.17175 c 132.83947,5.213 265.67895,10.426 398.51842,15.639"
       id="path185"
       inkscape:path-effect="#path-effect186"
       inkscape:original-d="m 375.47644,850.17175 c 132.83947,5.213 265.67895,10.426 398.51842,15.639"
       transform="matrix(0.72060694,0,0,0.63123374,104.89544,313.32886)" />
    <path
       style="fill:#dddcdc;fill-opacity:1;stroke:#000000;stroke-width:0.647314;stroke-dasharray:none;stroke-dashoffset:0;stroke-opacity:1"
       d="m 510.99794,854.07894 c -118.29341,-4.12453 -139.40876,-5.07306 -145.51742,-6.53678 -0.71093,-0.17035 -18.59718,-0.57281 -39.74722,-0.89436 -38.62646,-0.58725 -50.48083,-1.15445 -60.86817,-2.91239 -11.75874,-1.99004 -15.72606,-4.63669 -23.00156,-15.34462 -8.14113,-11.98194 -10.59695,-18.49731 -10.65805,-28.27606 -0.0995,-15.92091 2.96041,-18.74259 20.32485,-18.74259 11.13442,0 283.69059,9.4787 324.64272,11.29012 23.09286,1.02145 27.3109,1.72378 35.17671,5.85715 11.81727,6.2098 20.74214,16.734 32.0454,37.78791 6.66185,12.40865 9.1296,16.57418 11.77354,19.87361 l 2.20107,2.74676 -6.02151,-0.0825 c -3.31183,-0.0454 -66.4695,-2.19019 -140.35036,-4.7662 z"
       id="path186" />
  </g>
  <g
     inkscape:groupmode="layer"
     id="layer1"
     inkscape:label="palm"
     style="display:inline;opacity:0.5">
    <g
       id="g5"
       transform="matrix(0.28656698,0,0,0.28656698,595.33817,469.77734)"
       inkscape:label="g5">
      <path
         style="fill:#000000;stroke-width:1.00449"
         d="m 77.898688,424.00896 c 2.47717,-14.154 23.793292,-71.34158 38.846222,-104.21795 14.28198,-31.19256 32.45912,-65.23542 50.91384,-95.35343 1.61482,-2.6354 4.35213,-7.16349 6.08288,-10.06242 3.21844,-5.39069 4.83841,-7.91964 12.58452,-19.64569 2.43728,-3.68955 5.53984,-8.43326 6.89456,-10.54158 1.35472,-2.10832 5.35454,-7.93015 8.88847,-12.9374 8.43317,-11.94902 10.34779,-15.33322 8.67482,-15.33322 -0.72376,0 -7.27463,2.39781 -14.55748,5.32846 -47.93288,19.28842 -83.6405,46.34616 -110.583914,83.79586 -4.099174,5.6976 -5.513931,6.62949 -4.938841,3.25317 0.259881,-1.5257 0.593473,-4.499 0.741318,-6.60731 0.358977,-5.11906 7.760079,-23.28274 10.675613,-26.19996 1.983277,-1.98442 2.011347,-2.20428 0.244509,-1.91486 -2.07492,0.33989 -15.162161,13.37037 -16.389844,16.31876 -0.371148,0.89128 -1.176912,1.85112 -1.790653,2.13297 -0.613731,0.28184 -1.975255,1.92447 -3.025602,3.65028 -1.050336,1.7258 -3.624328,5.50968 -5.719989,8.40862 -5.158114,7.13526 -9.609078,14.23065 -18.786284,29.94769 -2.385159,4.08486 -4.645439,7.42702 -5.022845,7.42702 -1.875437,0 -1.716629,-17.71441 0.276783,-30.87399 0.822628,-5.43059 2.376622,-10.26744 5.849983,-18.20819 4.426552,-10.11994 5.16031,-11.27399 11.444937,-18.00063 3.693332,-3.9531 8.939637,-9.12806 11.658462,-11.49991 5.194448,-4.53155 6.736213,-6.70829 4.75143,-6.70829 -2.099535,0 -24.434496,15.58443 -32.619026,22.76024 -4.358499,3.82133 -8.314706,6.94787 -8.791572,6.94787 -1.662867,0 4.106336,-12.39621 9.449364,-20.30372 2.960735,-4.38179 6.025952,-8.94358 6.811595,-10.13729 0.785642,-1.19372 1.939509,-2.4051 2.564155,-2.69195 0.624648,-0.28687 1.381176,-1.13539 1.681175,-1.88561 1.015615,-2.53981 14.310908,-14.3037 22.559921,-19.96139 16.886474,-11.5818 37.317415,-19.44959 61.173365,-23.55735 6.50699,-1.12045 30.16635,-3.85764 33.4595,-3.87099 1.0491,-0.004 1.78738,-0.43898 1.64025,-0.96606 -0.40655,-1.45655 -21.55451,-1.15116 -31.76966,0.45878 -20.49534,3.23011 -45.286614,10.92603 -61.685901,19.14904 -3.84998,1.93048 -7.413032,3.36734 -7.917895,3.19302 -1.409114,-0.48656 13.026912,-15.11777 19.252196,-19.51249 3.037762,-2.14449 8.084902,-5.23572 11.21589,-6.86938 3.40015,-1.77412 5.33205,-3.23204 4.79719,-3.62025 -2.22073,-1.6118 -30.212156,9.44135 -47.482171,18.74959 -14.572155,7.85414 -31.706663,16.94302 -33.217236,17.61985 -2.025173,0.90739 -0.991386,-0.70739 5.789553,-9.04331 12.417259,-15.26475 29.83851,-32.04975 39.288759,-37.85388 7.177641,-4.40834 17.879091,-8.69018 27.392269,-10.96012 16.730056,-3.99197 17.351736,-5.38757 2.298006,-5.15878 -11.044176,0.16786 -18.916839,1.19063 -28.56748,3.71132 -7.780231,2.03215 -7.126302,0.0261 1.860586,-5.7078 9.906194,-6.3204 27.742404,-14.964721 36.437534,-17.659472 13.25271,-4.107206 21.66682,-5.209282 35.16847,-4.606341 10.5121,0.469438 12.76104,0.329986 13.73157,-0.851467 0.63834,-0.777065 2.02832,-1.412846 3.08884,-1.412846 1.06052,0 2.53131,-0.382606 3.26844,-0.850237 2.48487,-1.576403 16.41504,-3.963351 19.54441,-3.348956 4.23919,0.832286 4.52542,-0.849262 0.46121,-2.709472 -4.80937,-2.201282 -17.84132,-4.091735 -37.06924,-5.377368 -5.60746,-0.374932 -9.48289,-1.058075 -9.13166,-1.609694 0.89424,-1.404492 16.32363,-7.495678 26.37264,-10.411344 12.61125,-3.659087 23.63352,-3.530506 32.13285,0.37485 6.8384,3.142172 7.65124,3.322396 8.24848,1.828854 0.81573,-2.039941 -8.63316,-10.264988 -15.26187,-13.285124 -0.9998,-0.455524 -2.17196,-1.520022 -2.60482,-2.36555 -0.71199,-1.390798 0.084,-1.537323 8.35156,-1.537323 17.69321,0 29.96149,4.554975 37.05182,13.756622 9.92768,12.883885 9.44598,42.192722 -1.13813,69.249068 -3.74791,9.58088 -4.22071,12.83871 -1.56201,10.76358 0.9096,-0.70994 2.4096,-2.36893 3.33331,-3.68663 3.20082,-4.56595 20.26464,-23.24674 25.3859,-27.79145 10.87091,-9.647083 14.74205,-12.749234 23.15971,-18.559092 11.79584,-8.141479 20.8144,-12.568881 33.47915,-16.435632 9.57327,-2.922868 27.93941,-2.435846 36.98485,0.980742 8.5867,3.243314 9.18243,4.009838 3.74027,4.812585 -2.38782,0.352216 -7.43785,1.274578 -11.22229,2.049693 -3.78444,0.775115 -8.16899,1.630306 -9.74348,1.900426 -1.57448,0.270119 -4.35881,1.308858 -6.18741,2.308306 -3.32321,1.816352 -3.31926,1.817188 8.66433,1.838488 11.60835,0.02063 12.19781,0.132101 18.56372,3.510447 5.14235,2.729011 8.05874,5.531175 13.38684,12.862527 3.74668,5.15536 6.37922,9.66229 5.85008,10.0154 -0.52916,0.3531 -2.35389,0.18312 -4.05498,-0.37774 -6.22094,-2.05109 -16.08055,-4.72722 -24.7792,-6.72566 -5.24711,-1.20547 -22.31101,-1.43514 -22.76238,-0.30636 -0.16476,0.41201 1.71753,1.33286 4.18285,2.04635 4.9989,1.44671 15.49732,10.54878 13.6155,11.80455 -0.66301,0.44243 -2.37809,0.28562 -3.81129,-0.34848 -3.62721,-1.60478 -35.71911,-1.69308 -42.23993,-0.11622 -2.72455,0.65885 -7.17372,1.71399 -9.88705,2.34477 -11.72824,2.7265 -45.57187,17.10608 -48.41957,20.57265 -1.43519,1.74708 -0.65731,1.65166 10.01646,-1.22837 5.11353,-1.37978 10.85541,-2.85053 12.75972,-3.26834 1.90433,-0.41781 7.35796,-1.61518 12.11918,-2.66081 9.65584,-2.12056 18.62896,-3.48753 32.51403,-4.95319 23.07151,-2.43537 41.42909,0.23889 56.49587,8.23009 6.60926,3.50545 9.07193,5.69778 13.644,12.14625 3.34484,4.71758 6.10608,10.36327 6.89512,14.09785 1.58935,7.52264 2.1204,19.21916 1.10619,24.36387 l -0.74121,3.75987 -3.02521,-3.75987 c -1.66387,-2.06792 -3.84357,-4.78509 -4.84378,-6.03815 -5.51136,-6.90457 -19.86324,-16.63081 -21.46159,-14.54446 -0.41309,0.53921 1.51976,4.11368 4.29521,7.94324 8.11608,11.19853 9.21777,18.30414 5.24363,33.81964 -1.85493,7.24185 -3.78004,12.00165 -9.87417,24.41367 -4.16349,8.47989 -7.96594,15.59981 -8.44987,15.82205 -0.48392,0.22224 -1.00343,-0.55153 -1.15447,-1.71947 -3.35787,-25.96787 -5.183,-37.03005 -7.14913,-43.33154 -2.30614,-7.39121 -6.89819,-15.81238 -8.62247,-15.81238 -1.41203,0 -1.71917,1.97762 -0.7212,4.6437 0.5237,1.39906 0.74924,4.98198 0.5012,7.96204 -0.75028,9.01435 -10.52773,31.08181 -10.0252,22.62666 0.071,-1.19359 -1.41014,-6.92942 -3.29127,-12.74631 -2.57358,-7.95806 -5.39675,-13.23645 -11.40453,-21.32275 -4.39136,-5.91062 -8.62713,-10.7466 -9.41283,-10.7466 -0.78569,0 -1.44283,-0.35918 -1.46031,-0.79818 -0.0582,-1.46214 -9.63326,-8.08247 -17.59625,-12.1663 -8.2642,-4.23831 -19.13425,-8.13888 -28.083,-10.07718 -2.93106,-0.63488 -6.47308,-1.5901 -7.87112,-2.12272 -2.6308,-1.00225 -4.3606,-0.54978 -3.92086,1.0256 0.13897,0.49787 3.73764,3.16932 7.99704,5.93655 30.85874,20.04816 46.25391,43.75061 45.91263,70.68721 -0.0849,6.6948 -0.60949,8.70598 -5.43329,20.82696 -4.87042,12.23818 -5.86629,14.08993 -11.33818,21.08317 -9.22317,11.78748 -23.38964,26.18236 -24.35437,24.74704 -0.29163,-0.43389 1.66614,-6.82634 4.35062,-14.20545 5.06719,-13.92869 6.68182,-20.49866 5.95345,-24.22458 -0.66878,-3.42096 -2.66604,-1.58497 -5.21787,4.79653 -2.63678,6.59393 -8.59723,17.25516 -11.66543,20.86553 -10.29432,12.11337 -24.6906,22.81543 -44.89398,33.37376 -6.13536,3.20637 -12.76744,6.71202 -14.73792,7.79034 -1.97049,1.07831 -3.86311,1.96057 -4.20583,1.96057 -1.16811,0 0.37685,-2.50882 3.87269,-6.2887 5.96758,-6.45247 10.92314,-12.10889 17.57905,-20.06526 3.52743,-4.21664 7.15433,-8.41544 8.05979,-9.33067 0.90546,-0.91524 1.90963,-2.32264 2.23151,-3.12757 0.32187,-0.80493 1.31123,-2.21232 2.19859,-3.12756 1.55157,-1.60033 6.09809,-7.84055 11.76673,-16.15014 3.67463,-5.38657 5.91916,-11.1719 4.1485,-10.6928 -0.76527,0.20705 -1.95256,0.99767 -2.6384,1.75693 -7.29885,8.08002 -11.97744,12.56091 -16.63067,15.92794 -6.20051,4.48663 -16.94389,10.84814 -18.32042,10.84814 -0.49474,0 0.48628,-1.61342 2.18005,-3.58537 6.27797,-7.30908 15.25936,-21.2202 21.76692,-33.71443 5.91485,-11.35623 7.08104,-14.27406 9.95832,-24.91647 5.1059,-18.88476 5.9685,-33.07198 3.07814,-50.62649 -1.43349,-8.70626 -2.49828,-11.24 -4.36358,-10.38339 -0.80667,0.37045 -2.0196,2.04965 -2.69539,3.73155 -0.67572,1.6819 -2.29071,4.56736 -3.58873,6.41214 -2.32506,3.30445 -6.41346,10.30407 -13.71379,23.47899 -23.66323,42.70507 -39.29755,76.13393 -54.33687,116.18149 -9.23461,24.59045 -12.67864,35.54819 -21.61616,68.77541 -3.24673,12.07048 -6.45264,27.42061 -6.80502,32.58309 -0.10794,1.58123 -0.71109,4.9234 -1.34033,7.42702 l -1.14409,4.55205 H 97.570233 c -19.946029,0 -20.047084,-0.0111 -19.671661,-2.15623 z M 221.20253,127.42637 c -5.25869,-13.84206 -18.45608,-28.791817 -30.46607,-34.511431 -7.12705,-3.394164 -8.03661,-3.750658 -12.74304,-4.994514 -2.35678,-0.622873 -5.57932,-1.534521 -7.16119,-2.025885 -1.58187,-0.491363 -4.74457,-0.876122 -7.02822,-0.855019 l -4.15208,0.03837 2.23095,1.375083 c 1.22703,0.756296 4.26293,2.050561 6.74644,2.876145 17.05853,5.670688 38.49294,23.696461 49.92102,41.982261 3.81564,6.10533 5.50658,3.62838 2.65219,-3.88501 z"
         id="path1" />
      <path
         style="fill:#73f21a;fill-opacity:1;stroke:#09490d;stroke-width:0.359546;stroke-dasharray:none;stroke-opacity:1"
         d="m 211.41648,156.24764 11.44777,6.78359"
         id="path3" />
      <path
         style="fill:#00b804;fill-opacity:1;stroke:#3e231c;stroke-width:0.223533;stroke-dasharray:none;stroke-opacity:1"
         d="m 178.5476,324.84382 c 0.31257,-0.56925 2.48997,-3.16416 4.83868,-5.76646 7.12694,-7.89644 25.2816,-29.15013 26.38873,-30.89334 0.57127,-0.89947 2.41013,-3.36534 4.08638,-5.4797 3.92631,-4.95256 11.56457,-16.15857 13.13622,-19.27203 1.45865,-2.88959 1.86282,-5.64417 0.87887,-5.98978 -0.39152,-0.13751 -4.25061,3.30408 -8.57576,7.648 -5.48786,5.51167 -9.74026,9.15923 -14.07395,12.07212 -6.70127,4.50426 -14.19436,8.8398 -14.19436,8.21292 0,-0.21326 1.68865,-2.56492 3.75255,-5.22593 10.22632,-13.18493 23.33561,-36.04718 27.01436,-47.11236 2.27656,-6.84756 5.20957,-19.12121 6.22657,-26.05608 2.22259,-15.15566 -0.53545,-44.33748 -4.19043,-44.33748 -0.4459,0 -3.48774,-1.6172 -6.75965,-3.59377 l -5.94893,-3.59375 -3.09791,1.01734 c -7.55183,2.47998 -22.97208,9.05711 -33.85236,14.4389 -37.06179,18.33213 -63.22802,40.0128 -88.303565,73.16609 -2.015246,2.66443 -3.954705,5.02403 -4.309911,5.24356 -0.826534,0.51083 -0.198064,-6.26932 1.044724,-11.27084 1.365637,-5.49592 6.563956,-17.65076 9.092557,-21.26046 2.368559,-3.38123 2.38865,-4.09107 0.09123,-3.22317 -1.961566,0.74103 -13.488006,12.1276 -15.642752,15.45293 -1.005248,1.55137 -2.03679,2.82067 -2.292313,2.82067 -0.80894,0 -15.316863,21.70784 -22.72798,34.00731 -9.367768,15.54673 -9.212904,15.31977 -9.810477,14.37751 -0.681932,-1.07527 -0.623967,-16.79556 0.08573,-23.24898 0.883254,-8.03168 2.214992,-13.41612 5.083611,-20.55389 5.416808,-13.47823 6.418443,-14.94038 18.841361,-27.50393 6.193864,-6.26398 11.261571,-11.71994 11.261571,-12.12435 0,-1.61576 -3.246387,-0.18846 -10.330146,4.54176 -8.528002,5.6946 -18.833012,13.32777 -23.972888,17.75728 -5.773879,4.97589 -7.984327,6.5019 -7.984327,5.5121 0,-1.7705 6.506538,-13.99348 11.333455,-21.29067 16.893481,-25.53908 44.15909,-43.83056 78.26844,-52.50736 10.51645,-2.67519 17.17712,-3.76333 35.73294,-5.83759 13.39302,-1.49714 16.75749,-2.37605 12.4179,-3.24397 -2.89609,-0.57922 -16.67882,-0.44132 -23.84898,0.23861 -18.04808,1.71146 -45.41927,9.40251 -64.519214,18.12929 -10.682514,4.88086 -10.941485,4.98354 -10.941485,4.33843 0,-0.98901 13.711969,-14.4473 17.780078,-17.45113 2.093946,-1.54614 6.518701,-4.39623 9.832791,-6.33353 8.90295,-5.20436 9.65987,-6.7431 2.4679,-5.01703 -10.273381,2.46562 -30.907409,11.64304 -54.329466,24.1642 -16.697397,8.92622 -21.337122,11.28004 -21.639205,10.97795 -0.400877,-0.40087 8.273468,-10.91336 15.996074,-19.38574 7.586334,-8.32287 18.405651,-18.47782 24.864659,-23.33781 7.489184,-5.63514 18.002646,-10.25048 31.605083,-13.87442 13.464275,-3.58714 15.776395,-4.87019 10.265515,-5.6966 -3.1825,-0.47725 -17.18468,0.0874 -23.4556,0.94593 -2.32135,0.31779 -7.234229,1.26893 -10.917505,2.11365 -3.683276,0.84471 -6.877007,1.35402 -7.09718,1.1318 -1.574966,-1.58963 23.110295,-15.558129 37.547945,-21.247032 6.61209,-2.605373 17.12832,-5.377778 23.7421,-6.259152 2.70211,-0.360092 10.31996,-0.585041 16.92856,-0.499887 11.19074,0.144196 12.19335,0.06914 14.60432,-1.093228 6.25743,-3.01683 19.67145,-5.883547 24.79969,-5.299959 4.89171,0.55667 5.36908,-1.223008 0.86274,-3.216378 -4.75328,-2.102602 -16.22836,-3.901901 -33.4238,-5.240871 -9.96053,-0.775603 -12.67376,-1.190317 -12.02593,-1.838148 0.9275,-0.927507 12.92902,-5.721608 20.36645,-8.135545 16.8382,-5.465103 27.59207,-5.67071 38.58671,-0.73775 6.30739,2.829936 8.83763,2.258587 6.21634,-1.403706 -1.92028,-2.682904 -7.88456,-7.667325 -11.44764,-9.566938 -3.474,-1.852122 -5.70927,-3.740296 -5.26975,-4.451456 0.5009,-0.810478 13.62724,-0.575969 19.79387,0.353628 13.5064,2.03604 23.13625,8.05488 27.44003,17.150539 2.89135,6.110624 3.91741,10.865656 4.28953,19.87897 0.61548,14.907541 -1.59228,26.920883 -8.44796,45.968873 -3.9884,11.08148 -3.33811,12.99077 2.2289,6.54416 10.28962,-11.9154 13.74124,-15.72565 20.20553,-22.3049 13.76894,-14.013797 31.88608,-27.675291 45.41323,-34.244504 7.63563,-3.708105 17.17104,-6.977547 22.983,-7.88027 5.59379,-0.868839 20.82291,-0.345512 25.81912,0.887237 4.481,1.105627 11.44107,3.847811 11.44107,4.507643 0,0.514531 -0.60084,0.647615 -15.96865,3.537021 -9.338,1.755701 -15.96866,3.948432 -15.96866,5.280772 0,0.343283 1.13112,0.64498 2.51359,0.670438 1.38247,0.02546 6.63882,0.239481 11.68077,0.475609 l 9.16719,0.429324 4.86072,2.537781 c 3.52833,1.842143 5.89101,3.62994 8.61934,6.522115 3.55,3.763187 11.06435,14.262304 11.06435,15.459204 0,0.96068 -2.19282,0.61153 -9.32873,-1.48538 -13.52105,-3.97318 -19.16881,-5.15611 -27.04431,-5.66445 -7.94964,-0.51313 -14.78579,-0.10996 -14.78579,0.872 0,0.30932 1.59686,1.17228 3.54859,1.91768 3.96421,1.51402 10.87465,6.51781 13.22656,9.57725 l 1.53978,2.00299 -2.356,-0.35636 c -1.2958,-0.19599 -7.10621,-0.64534 -12.91202,-0.99856 -15.32783,-0.93252 -28.29932,-0.0722 -38.82852,2.57529 -18.95029,4.76489 -53.76431,20.16262 -51.2568,22.67013 0.21321,0.2132 6.97608,-1.24952 15.0286,-3.2505 28.24729,-7.01921 44.23076,-9.66324 63.72977,-10.5424 20.60106,-0.92884 40.97114,4.23415 52.18274,13.22622 5.87788,4.71425 12.58753,15.92184 14.14227,23.62282 1.10843,5.49032 1.44005,22.40028 0.4713,24.0327 -0.54785,0.92315 -1.12286,0.43054 -4.55989,-3.90651 -6.14127,-7.7494 -13.26267,-13.85758 -20.36907,-17.471 -2.67255,-1.35891 -4.90288,-1.65247 -4.90288,-0.6453 0,0.97405 1.5498,3.73557 5.3115,9.46433 1.91125,2.91067 4.04991,6.82246 4.75257,8.69285 2.67797,7.12842 2.04515,15.684 -2.1118,28.55099 -2.52015,7.80065 -16.12575,35.52537 -16.81394,34.26249 -0.25806,-0.47358 -0.65392,-2.32484 -0.87969,-4.11392 -1.29133,-10.23325 -3.98462,-27.91964 -5.04103,-33.10349 -2.2373,-10.97863 -7.8466,-23.08252 -10.69711,-23.08252 -1.46555,0 -1.81388,1.49431 -1.05285,4.51663 1.05891,4.20532 0.29805,12.11944 -1.72645,17.95777 -1.99708,5.75925 -4.88014,12.16889 -6.25162,13.89865 -0.90083,1.13616 -0.9386,1.09666 -0.95667,-1.00066 -0.0306,-3.55689 -3.94504,-15.70421 -7.11038,-22.06518 -2.87329,-5.77408 -10.39644,-16.41851 -14.31217,-20.25014 -8.83816,-8.64835 -19.19732,-15.10603 -32.84109,-20.47244 -5.57633,-2.1933 -24.72246,-7.58804 -27.35649,-7.70813 -1.83943,-0.0839 -2.3434,1.74601 -0.8075,2.93192 0.59784,0.46161 4.59569,3.25167 8.88411,6.20016 29.8313,20.51038 43.95313,42.61173 43.95313,68.78875 0,5.95557 -0.89438,9.50159 -5.07462,20.11965 -4.56162,11.58678 -7.14865,16.22426 -13.40162,24.02347 -6.64361,8.28648 -21.16802,23.09523 -21.57523,21.99761 -0.15763,-0.42488 1.89157,-7.29554 4.55376,-15.26815 5.2187,-15.62873 6.48145,-22.19299 4.57377,-23.77623 -1.34166,-1.11348 -2.75065,0.6704 -5.41377,6.8542 -1.22351,2.84097 -3.86112,8.08305 -5.86139,11.64907 -7.2539,12.93204 -21.92294,25.80649 -42.96705,37.71051 -7.87558,4.45498 -25.04326,13.4704 -25.6511,13.4704 -0.22743,0 -0.15778,-0.46575 0.15479,-1.035 z m 44.42212,-191.49465 c 0,-3.94303 -4.12017,-12.87936 -9.39901,-20.38573 -3.27224,-4.65304 -12.32646,-13.888249 -16.14666,-16.469423 -8.31383,-5.617369 -23.36749,-10.985637 -32.8582,-11.717525 -7.57719,-0.584325 -6.34696,0.780117 4.58359,5.083649 17.79596,7.006547 35.1943,21.497179 48.15488,40.106959 3.57964,5.13992 5.6654,6.38506 5.6654,3.38207 z"
         id="path4" />
      <path
         style="fill:#501616;fill-opacity:1;stroke:#3e231c;stroke-width:0.25297;stroke-dasharray:none;stroke-opacity:1"
         d="m 78.571716,424.73247 c -1.101422,-2.87026 10.398937,-36.46294 24.649934,-72.00274 23.82152,-59.40723 54.3527,-115.2972 98.57724,-180.45422 4.78561,-7.05075 9.01832,-13.3557 9.40604,-14.011 0.64824,-1.09564 1.09228,-0.96133 5.52186,1.67024 2.64931,1.57393 4.81693,2.98797 4.81693,3.14232 0,0.71882 -3.64474,7.3487 -6.28429,11.43129 -7.99769,12.36998 -30.26119,53.96266 -40.60666,75.86134 -28.4044,60.12475 -46.50885,114.82667 -55.86356,168.78968 l -1.13128,6.52583 H 98.297624 c -16.129063,0 -19.421325,-0.15902 -19.725908,-0.95274 z"
         id="path5" />
    </g>
  </g>
</svg>
